<svg width="120" height="120" viewBox="0 0 120 120" fill="none" xmlns="http://www.w3.org/2000/svg">
<path d="M0 74.1329V118.57C0 119.367 0.632812 120 1.42969 120H118.57C119.367 120 120 119.367 120 118.57V74.1329C120 73.3361 119.367 72.7032 118.57 72.7032H115.969V51.5157C115.969 47.5782 112.898 44.297 108.961 44.0392C106.898 43.8986 104.93 44.6251 103.43 46.0314C101.883 47.4845 100.992 49.547 100.992 51.7032V55.8048C100.992 56.6017 101.625 57.2345 102.422 57.2345C103.219 57.2345 103.852 56.6017 103.852 55.8048V51.4923C103.852 49.1017 105.727 47.0626 108.094 46.8751C109.383 46.7579 110.602 47.2032 111.562 48.0704C112.547 48.9845 113.109 50.2736 113.109 51.6329V64.5939H110.508C109.711 64.5939 109.078 65.2267 109.078 66.0236C109.078 66.8204 109.711 67.4532 110.508 67.4532H113.109V72.6798H59.4141V67.4532H62.0156C62.8125 67.4532 63.4453 66.8204 63.4453 66.0236C63.4453 65.2267 62.8125 64.5939 62.0156 64.5939H59.4141V61.9923C59.4141 61.1954 58.7812 60.5626 57.9844 60.5626H37.7812C36.9844 60.5626 36.3516 61.1954 36.3516 61.9923V64.5939H33.75C32.9531 64.5939 32.3203 65.2267 32.3203 66.0236C32.3203 66.8204 32.9531 67.4532 33.75 67.4532H36.3516V72.6798H1.42969C0.632812 72.7032 0 73.3595 0 74.1329ZM117.141 117.141H103.828V91.7345H117.141V117.141ZM87.6797 75.5626H117.141V88.8751H87.6797V75.5626ZM87.6797 91.7345H100.992V117.164H87.6797V91.7345ZM39.2109 63.4454H56.5547V72.7032H39.2109V63.4454ZM35.1797 75.5626H84.8438V117.141H35.1797V75.5626ZM2.85938 75.5626H32.3203V88.8751H2.85938V75.5626ZM2.85938 91.7345H32.3203V117.164H2.85938V91.7345Z" fill="#FDB73B"/>
<path d="M110.484 100.758C109.57 100.758 108.82 101.508 108.82 102.422V104.438C108.82 105.352 109.57 106.102 110.484 106.102C111.398 106.102 112.148 105.352 112.148 104.438V102.422C112.148 101.508 111.422 100.758 110.484 100.758Z" fill="#FDB73B"/>
<path d="M96 102.422C96 101.508 95.25 100.758 94.3359 100.758C93.4219 100.758 92.6719 101.508 92.6719 102.422V104.438C92.6719 105.352 93.4219 106.102 94.3359 106.102C95.25 106.102 96 105.352 96 104.438V102.422Z" fill="#FDB73B"/>
<path d="M19.6172 96.7031H15.5625C14.6484 96.7031 13.8984 97.4531 13.8984 98.3672C13.8984 99.2813 14.6484 100.031 15.5625 100.031H19.5938C20.5078 100.031 21.2578 99.2813 21.2578 98.3672C21.2812 97.4531 20.5312 96.7031 19.6172 96.7031Z" fill="#FDB73B"/>
<path d="M78.1875 88.875H41.8125C41.0156 88.875 40.3828 89.5078 40.3828 90.3047V110.508C40.3828 111.305 41.0156 111.937 41.8125 111.937H78.1641C78.9609 111.937 79.5938 111.305 79.5938 110.508V90.3047C79.5938 89.9297 79.4531 89.5547 79.1719 89.2969C78.9141 89.0156 78.5625 88.875 78.1875 88.875ZM76.7578 109.055H43.2422V91.7109H76.7344V109.055H76.7578Z" fill="#FDB73B"/>
<path d="M104.438 80.5547H100.406C99.4922 80.5547 98.7422 81.3047 98.7422 82.2187C98.7422 83.1328 99.4922 83.8828 100.406 83.8828H104.438C105.352 83.8828 106.102 83.1328 106.102 82.2187C106.102 81.3047 105.352 80.5547 104.438 80.5547Z" fill="#FDB73B"/>
<path d="M19.6172 80.5547H15.5625C14.6484 80.5547 13.8984 81.3047 13.8984 82.2187C13.8984 83.1328 14.6484 83.8828 15.5625 83.8828H19.5938C20.5078 83.8828 21.2578 83.1328 21.2578 82.2187C21.2812 81.3047 20.5312 80.5547 19.6172 80.5547Z" fill="#FDB73B"/>
<path d="M72.1172 84.2344C73.2304 84.2344 74.1328 83.3319 74.1328 82.2187C74.1328 81.1055 73.2304 80.2031 72.1172 80.2031C71.004 80.2031 70.1016 81.1055 70.1016 82.2187C70.1016 83.3319 71.004 84.2344 72.1172 84.2344Z" fill="#FDB73B"/>
<path d="M64.0313 84.2344C65.1563 84.2344 66.0469 83.3203 66.0469 82.2187C66.0469 81.0937 65.1328 80.2031 64.0313 80.2031C62.9063 80.2031 62.0156 81.1172 62.0156 82.2187C62.0156 83.3437 62.9297 84.2344 64.0313 84.2344Z" fill="#FDB73B"/>
<path d="M55.9688 84.2344C57.082 84.2344 57.9844 83.3319 57.9844 82.2187C57.9844 81.1055 57.082 80.2031 55.9688 80.2031C54.8556 80.2031 53.9531 81.1055 53.9531 82.2187C53.9531 83.3319 54.8556 84.2344 55.9688 84.2344Z" fill="#FDB73B"/>
<path d="M47.8828 84.2344C49.0078 84.2344 49.8984 83.3203 49.8984 82.2187C49.8984 81.0937 48.9844 80.2031 47.8828 80.2031C46.7578 80.2031 45.8672 81.1172 45.8672 82.2187C45.8672 83.3437 46.7578 84.2344 47.8828 84.2344Z" fill="#FDB73B"/>
<path d="M35.1797 41.8125C35.1797 41.0156 34.5469 40.3828 33.75 40.3828H23.0625V37.9219C23.0625 37.0547 22.4297 36.3281 21.6328 36.3281C20.8359 36.3281 20.2031 37.0313 20.2031 37.9219V40.3828H14.9766V37.9219C14.9766 37.0547 14.3437 36.3281 13.5469 36.3281C12.75 36.3281 12.1172 37.0313 12.1172 37.9219V40.3828H6.89062V37.9219C6.89062 37.0547 6.25781 36.3281 5.46094 36.3281C4.66406 36.3281 4.03125 37.0313 4.03125 37.9219V40.3828H1.42969C0.632812 40.3828 0 41.0156 0 41.8125C0 42.6094 0.632812 43.2422 1.42969 43.2422H4.03125V52.6875L3.63281 52.8281C1.47656 53.6016 0 55.6641 0 57.9844C0 61.0078 2.46094 63.4453 5.46094 63.4453C6.79687 63.4453 8.10938 62.9531 9.11719 62.0391L9.51562 61.6875L9.91406 62.0391C10.9219 62.9297 12.2109 63.4453 13.5703 63.4453C14.9062 63.4453 16.2187 62.9531 17.2266 62.0391L17.625 61.6875L18.0234 62.0391C19.0312 62.9297 20.3203 63.4453 21.6797 63.4453C24.7031 63.4453 27.1406 60.9844 27.1406 57.9844C27.1406 55.6641 25.6641 53.6016 23.4844 52.8281L23.0859 52.6875V43.2422H33.75C34.5234 43.2422 35.1797 42.6094 35.1797 41.8125ZM5.46094 60.5859C4.03125 60.5859 2.85937 59.4141 2.85937 57.9844C2.85937 56.5547 4.03125 55.3828 5.46094 55.3828C6.89062 55.3828 8.0625 56.5547 8.0625 57.9844C8.0625 59.4141 6.91406 60.5859 5.46094 60.5859ZM9.51562 54.2578L9.11719 53.9063C8.57812 53.4375 7.96875 53.0625 7.28906 52.8281L6.89062 52.6875V43.2422H12.1172V52.6875L11.7187 52.8281C11.0391 53.0625 10.4297 53.4375 9.89062 53.9063L9.51562 54.2578ZM13.5469 60.5859C12.1172 60.5859 10.9453 59.4141 10.9453 57.9844C10.9453 56.5547 12.1172 55.3828 13.5469 55.3828C14.9766 55.3828 16.1484 56.5547 16.1484 57.9844C16.1484 59.4141 14.9766 60.5859 13.5469 60.5859ZM17.5781 54.2578L17.1797 53.9063C16.6406 53.4375 16.0312 53.0625 15.3516 52.8281L14.9531 52.6875V43.2422H20.1797V52.6875L19.7812 52.8281C19.1016 53.0625 18.4922 53.4375 17.9531 53.9063L17.5781 54.2578ZM24.2344 57.9844C24.2344 59.4141 23.0625 60.5859 21.6328 60.5859C20.2031 60.5859 19.0312 59.4141 19.0312 57.9844C19.0312 56.5547 20.2031 55.3828 21.6328 55.3828C23.0625 55.3828 24.2344 56.5312 24.2344 57.9844Z" fill="#FDB73B"/>
<path d="M76.1484 0H43.8515C43.0547 0 42.4218 0.632812 42.4218 1.42969V25.0781L34.7578 32.7422C34.3359 33.1641 34.2187 33.7734 34.4531 34.2891C34.664 34.8281 35.2031 35.1797 35.7656 35.1797H84.2343C84.8203 35.1797 85.3359 34.8281 85.5468 34.2891C85.7578 33.75 85.6406 33.1406 85.2422 32.7422L77.5781 25.0781V1.42969C77.5781 0.632812 76.9453 0 76.1484 0ZM80.789 32.3203H39.2109L44.8593 26.6719C45.1172 26.4141 45.2812 26.0391 45.2812 25.6641V2.85937H74.7421V25.6641C74.7421 26.0391 74.8828 26.4141 75.164 26.6719L80.789 32.3203Z" fill="#FDB73B"/>
<path d="M33.75 0H1.42969C0.632812 0 0 0.632812 0 1.42969V25.6641C0 26.4609 0.632812 27.0938 1.42969 27.0938H33.75C34.5469 27.0938 35.1797 26.4609 35.1797 25.6641V1.42969C35.1797 0.632812 34.5234 0 33.75 0ZM32.3203 24.2344H2.85937V2.85938H32.3203V24.2344Z" fill="#FDB73B"/>
<path d="M25.6641 11.8828C24.75 11.8828 24 12.6328 24 13.5469V17.5781C24 18.4922 24.75 19.2422 25.6641 19.2422C26.5781 19.2422 27.3281 18.4922 27.3281 17.5781V13.5469C27.3281 12.6328 26.5781 11.8828 25.6641 11.8828Z" fill="#FDB73B"/>
<path d="M118.57 0H86.25C85.4531 0 84.8203 0.632812 84.8203 1.42969V25.6641C84.8203 26.4609 85.4531 27.0938 86.25 27.0938H118.57C119.367 27.0938 120 26.4609 120 25.6641V1.42969C120 0.632812 119.367 0 118.57 0ZM117.141 24.2344H87.6797V2.85938H117.141V24.2344Z" fill="#FDB73B"/>
<path d="M96 13.5469C96 12.6328 95.25 11.8828 94.3359 11.8828C93.4219 11.8828 92.6719 12.6328 92.6719 13.5469V17.5781C92.6719 18.4922 93.4219 19.2422 94.3359 19.2422C95.25 19.2422 96 18.4922 96 17.5781V13.5469Z" fill="#FDB73B"/>
</svg>
