<svg width="120" height="120" viewBox="0 0 120 120" fill="none" xmlns="http://www.w3.org/2000/svg">
<path d="M17.6281 107.133C17.1359 107.133 16.6437 107.344 16.2687 107.695C15.9171 108.047 15.7062 108.539 15.7062 109.055C15.7062 109.547 15.9171 110.039 16.2687 110.414C16.6202 110.766 17.1124 110.977 17.6281 110.977C18.1202 110.977 18.6124 110.766 18.9874 110.414C19.339 110.062 19.5499 109.57 19.5499 109.055C19.5499 108.562 19.339 108.07 18.9874 107.695C18.6124 107.344 18.1202 107.133 17.6281 107.133Z" fill="#FDB73B"/>
<path d="M109.169 42.375C108.677 42.375 108.185 42.5859 107.81 42.9375C107.458 43.2891 107.248 43.7812 107.248 44.2969C107.248 44.7891 107.458 45.2812 107.81 45.6562C108.162 46.0078 108.654 46.2187 109.169 46.2187C109.662 46.2187 110.154 46.0078 110.529 45.6562C110.88 45.3047 111.091 44.8125 111.091 44.2969C111.091 43.8047 110.88 43.3125 110.529 42.9375C110.177 42.5859 109.685 42.375 109.169 42.375Z" fill="#FDB73B"/>
<path d="M99.746 60C99.746 54.2344 95.0576 49.5469 89.2909 49.5469C83.5241 49.5469 78.8357 54.2344 78.8357 60C78.8357 64.1719 81.3206 67.9453 85.1885 69.6094L89.2909 71.3672L93.3932 69.6094C97.2612 67.9453 99.746 64.1719 99.746 60ZM89.2909 67.5703C85.1182 67.5703 81.7191 64.1719 81.7191 60C81.7191 55.8281 85.1182 52.4297 89.2909 52.4297C93.4636 52.4297 96.8627 55.8281 96.8627 60C96.8861 64.1719 93.487 67.5703 89.2909 67.5703Z" fill="#FDB73B"/>
<path d="M29.0447 68.8125H6.18871C2.78961 68.8125 0 71.5781 0 75V113.812C0 117.211 2.78961 120 6.18871 120H29.0447C31.9047 120 34.3661 118.055 35.0459 115.289L35.421 113.789L39.4296 117.281C41.4456 119.039 44.0242 120 46.6966 120H118.57C119.367 120 120 119.367 120 118.57V1.42969C120 1.05469 119.859 0.679688 119.578 0.421875C119.297 0.140625 118.945 0 118.57 0L60.0117 0C59.2147 0 58.5818 0.632812 58.5818 1.42969V8.97656L35.3038 15.2109C34.5302 15.4219 34.0848 16.1953 34.2958 16.9688L46.134 61.1484L34.8115 72.4688L34.1551 71.5312C33.0064 69.8203 31.1076 68.8125 29.0447 68.8125ZM32.3735 113.812C32.3735 115.641 30.8732 117.141 29.0447 117.141H6.18871C4.36023 117.141 2.85993 115.641 2.85993 113.812V75C2.85993 73.1719 4.36023 71.6719 6.18871 71.6719H16.175V100.055C16.175 100.852 16.808 101.484 17.605 101.484C18.402 101.484 19.035 100.852 19.035 100.055V71.6719H29.0213C30.8498 71.6719 32.3501 73.1719 32.3501 75V113.812H32.3735ZM61.4417 2.85938H117.164V117.141H97.7535L98.363 115.805C98.7849 114.867 98.9959 113.883 98.9959 112.852C98.9959 111.82 98.7849 110.836 98.363 109.898L97.7535 108.562H99.9805C103.919 108.562 107.13 105.352 107.13 101.414C107.13 100.289 106.872 99.2109 106.38 98.2266L105.864 97.1953L106.99 96.8906C110.084 96.0469 112.241 93.2109 112.241 90C112.241 88.4531 111.748 86.9766 110.834 85.7344L110.647 85.4766V55.0078C110.647 54.2109 110.014 53.5781 109.217 53.5781C108.42 53.5781 107.787 54.2109 107.787 55.0078V83.2734L106.638 83.0156C106.122 82.8984 105.607 82.8516 105.114 82.8516H103.567L104.177 81.5156C104.599 80.5781 104.81 79.5938 104.81 78.5859C104.81 74.6484 101.598 71.4375 97.6597 71.4375H70.8654V24.4453L71.6156 24.2812C75.5069 23.4375 78.5778 20.3672 79.4218 16.4766L79.5859 15.7266H99.0193L99.1834 16.4766C100.027 20.3672 103.098 23.4375 106.99 24.2812L107.74 24.4453V32.6016C107.74 33.3984 108.373 34.0312 109.17 34.0312C109.967 34.0312 110.6 33.3984 110.6 32.6016V23.0859C110.6 22.2891 109.967 21.6562 109.17 21.6562C105.114 21.6562 101.809 18.3516 101.809 14.2969C101.809 13.5 101.176 12.8672 100.379 12.8672H78.2262C77.4292 12.8672 76.7962 13.5 76.7962 14.2969C76.7962 18.3516 73.4909 21.6562 69.4354 21.6562C68.6384 21.6562 68.0055 22.2891 68.0055 23.0859V71.4375H61.4651V2.85938H61.4417ZM37.437 17.6016L58.5818 11.9297V22.7109L56.2844 23.3203C55.9094 23.4141 55.6046 23.6484 55.4171 23.9766C55.2295 24.3047 55.1827 24.7031 55.2764 25.0547C56.3313 28.9688 53.9871 33.0234 50.0723 34.0781C49.6972 34.1719 49.3925 34.4062 49.2049 34.7578C49.0174 35.0859 48.9705 35.4844 49.0643 35.8359L58.6755 71.3906H51.9242L49.2752 61.0547C49.2284 60.8672 49.158 60.7031 49.0408 60.5625L48.9236 60.4219L37.437 17.6016ZM58.5818 29.6016V60.1641L52.1821 36.4453L52.8619 36.0938C54.4794 35.25 55.8625 33.9844 56.847 32.4141L58.5818 29.6016ZM35.2569 76.0781L35.3975 75.9375L47.1186 64.2188L49.4159 73.2188C49.58 73.8516 50.1426 74.2969 50.799 74.2969H97.6128C99.9805 74.2969 101.903 76.2188 101.903 78.5859C101.903 80.9531 99.9805 82.875 97.6128 82.875H73.6081C72.8111 82.875 72.1782 83.5078 72.1782 84.3047C72.1782 85.1016 72.8111 85.7344 73.6081 85.7344H105.044C107.412 85.7344 109.334 87.6562 109.334 90.0234C109.334 92.3906 107.412 94.3125 105.044 94.3125H73.6081C72.8111 94.3125 72.1782 94.9453 72.1782 95.7422C72.1782 96.5391 72.8111 97.1719 73.6081 97.1719H99.957C102.325 97.1719 104.247 99.0938 104.247 101.461C104.247 103.828 102.325 105.75 99.957 105.75H73.6081C72.8111 105.75 72.1782 106.383 72.1782 107.18C72.1782 107.977 72.8111 108.609 73.6081 108.609H91.8226C94.1903 108.609 96.1125 110.531 96.1125 112.898C96.1125 115.266 94.1903 117.188 91.8226 117.188H46.6966C44.7275 117.188 42.8052 116.461 41.3049 115.172L35.2334 109.875V76.0781H35.2569Z" fill="#FDB73B"/>
</svg>
