<svg width="120" height="120" viewBox="0 0 120 120" fill="none" xmlns="http://www.w3.org/2000/svg">
<path d="M74.8664 116.914H31.7798C30.9288 116.914 30.2365 117.606 30.2365 118.457C30.2365 119.308 30.9288 120 31.7798 120H74.8666C75.7176 120 76.41 119.308 76.41 118.457C76.41 117.606 75.7174 116.914 74.8664 116.914Z" fill="#FDB73B"/>
<path d="M85.5911 105.63H61.402C60.551 105.63 59.8589 106.323 59.8589 107.174C59.8589 108.025 60.551 108.717 61.402 108.717H85.5911C86.4422 108.717 87.1345 108.025 87.1345 107.174C87.1345 106.323 86.4422 105.63 85.5911 105.63Z" fill="#FDB73B"/>
<path d="M44.6309 105.63H1.54434C0.69332 105.63 0.000976562 106.323 0.000976562 107.174C0.000976562 108.025 0.69332 108.717 1.54434 108.717H44.6309C45.4819 108.717 46.1743 108.025 46.1743 107.174C46.1743 106.323 45.4819 105.63 44.6309 105.63Z" fill="#FDB73B"/>
<path d="M53.3393 105.158C54.4526 105.158 55.3552 106.06 55.3552 107.174C55.3552 108.287 54.4526 109.189 53.3393 109.189C52.2261 109.189 51.3235 108.287 51.3235 107.174C51.3235 106.06 52.2261 105.158 53.3393 105.158Z" fill="#FDB73B"/>
<path d="M96.2836 89.2285C97.3969 89.2285 98.2994 88.326 98.2994 87.2126C98.2994 86.0993 97.3969 85.1968 96.2836 85.1968C95.1702 85.1968 94.2677 86.0993 94.2677 87.2126C94.2677 88.326 95.1702 89.2285 96.2836 89.2285Z" fill="#FDB73B"/>
<path d="M27.7484 89.2285C28.8617 89.2285 29.7643 88.326 29.7643 87.2126C29.7643 86.0993 28.8617 85.1968 27.7484 85.1968C26.6351 85.1968 25.7325 86.0993 25.7325 87.2126C25.7325 88.326 26.6351 89.2285 27.7484 89.2285Z" fill="#FDB73B"/>
<path d="M119.755 64.2047L119.755 64.204L101.613 35.9836C101.328 35.5402 100.843 35.2754 100.315 35.2754H79.6852V22.7084C79.6852 21.8574 78.9928 21.165 78.1418 21.165H1.54336C0.692344 21.165 0 21.8574 0 22.7084V87.2124C0 88.0634 0.692344 88.7557 1.54336 88.7557H16.2244L16.2907 89.1497C17.2359 94.7616 22.0547 98.8346 27.7481 98.8346C33.4416 98.8346 38.2601 94.7616 39.2055 89.1497L39.2719 88.7557H84.7596L84.8259 89.1497C85.7714 94.7614 90.5902 98.8346 96.2834 98.8346C101.977 98.8346 106.795 94.7614 107.741 89.1497L107.807 88.7557H118.457C119.308 88.7557 120 88.0634 120 87.2124V65.0391C120 64.7414 119.916 64.4532 119.755 64.2047ZM27.7484 95.7479C23.0419 95.7479 19.2129 91.9189 19.2129 87.2126C19.2129 82.5061 23.0419 78.6772 27.7484 78.6772C32.4548 78.6772 36.2838 82.5064 36.2838 87.2126C36.2838 91.9189 32.4546 95.7479 27.7484 95.7479ZM76.5987 29.2282H11.6224C10.7714 29.2282 10.0791 29.9206 10.0791 30.7716C10.0791 31.6226 10.7714 32.315 11.6224 32.315H76.5987V77.6061H43.8743C43.0233 77.6061 42.3309 78.2984 42.3309 79.1494C42.3309 80.0004 43.0233 80.6928 43.8743 80.6928H76.5987V85.6693H39.2721L39.2058 85.2753C38.2603 79.6634 33.4418 75.5904 27.7484 75.5904C22.0547 75.5904 17.2362 79.6634 16.2909 85.2753L16.2246 85.6693H3.08695V80.6928H11.6224C12.4734 80.6928 13.1658 80.0004 13.1658 79.1494C13.1658 78.2984 12.4734 77.6061 11.6224 77.6061H3.08695V24.2518H76.5987V29.2282ZM103.874 46.425H104.656L114.334 61.4801H87.7484V46.425H99.743H103.874ZM96.2836 95.7479C91.5771 95.7479 87.7484 91.9189 87.7484 87.2126C87.7484 82.5061 91.5773 78.6772 96.2836 78.6772C100.99 78.6772 104.819 82.5064 104.819 87.2126C104.819 91.9189 100.99 95.7479 96.2836 95.7479ZM116.914 77.6061H112.41C111.559 77.6061 110.866 78.2984 110.866 79.1494C110.866 80.0004 111.559 80.6928 112.41 80.6928H116.914V85.6693H107.808L107.741 85.2753C106.796 79.6634 101.977 75.5904 96.2838 75.5904C90.5906 75.5904 85.7719 79.6634 84.8264 85.2753L84.7601 85.6693H79.6854V38.3621H99.4727L102.672 43.3386H86.2052C85.3542 43.3386 84.6619 44.0309 84.6619 44.8819V63.0237C84.6619 63.8747 85.3542 64.5671 86.2052 64.5671H116.318L116.914 65.4933V77.6061Z" fill="#FDB73B"/>
<path d="M57.4177 10.5371H33.2285C32.3775 10.5371 31.6852 11.2295 31.6852 12.0805C31.6852 12.9315 32.3775 13.6238 33.2285 13.6238H57.4177C58.2687 13.6238 58.961 12.9315 58.961 12.0805C58.961 11.2295 58.2687 10.5371 57.4177 10.5371Z" fill="#FDB73B"/>
<path d="M25.1655 10.0645C26.2788 10.0645 27.1814 10.967 27.1814 12.0803C27.1814 13.1936 26.2788 14.0962 25.1655 14.0962C24.0522 14.0962 23.1497 13.1936 23.1497 12.0803C23.1499 10.967 24.0522 10.0645 25.1655 10.0645Z" fill="#FDB73B"/>
<path d="M44.8778 0H1.79128C0.940268 0 0.247925 0.692345 0.247925 1.54336C0.247925 2.39438 0.940268 3.08672 1.79128 3.08672H44.8778C45.7289 3.08672 46.4212 2.39438 46.4212 1.54336C46.4212 0.692345 45.7289 0 44.8778 0Z" fill="#FDB73B"/>
</svg>
