<svg width="170" height="60" viewBox="0 0 170 60" fill="none" xmlns="http://www.w3.org/2000/svg">
<path d="M39.2743 52.4771H41.9546C42.5454 52.4771 43.1361 52.2457 43.5866 51.7814C43.8558 51.5043 44.0428 51.1772 44.1505 50.8286H39.2743V52.4771Z" fill="#BF1E2D"/>
<path d="M39.2743 50.8286H28.0387V52.4771H39.2743V50.8286Z" fill="#E41E30"/>
<path d="M39.2743 39.2672H28.0387V50.8286H39.2743V39.2672Z" fill="#BF1E2D"/>
<path d="M39.2743 50.8286H44.1505C44.2241 50.5929 44.2624 50.3471 44.2624 50.1029V39.2672H39.2757V50.8286H39.2743Z" fill="#AB1927"/>
<path d="M28.0387 39.2672H16.7861V50.8286H28.0387V39.2672Z" fill="#AB1927"/>
<path d="M7.14709 39.2672C7.61884 39.9843 8.06368 40.6429 8.46034 41.2186V49.5243C7.52251 49.76 6.48268 50.06 5.53351 50.4186V50.83H16.7861V39.2686H7.14709V39.2672Z" fill="#BF1E2D"/>
<path d="M5.53351 50.8286V53.3771C6.27159 53.03 7.38509 52.6472 8.64026 52.3086C8.46601 54.3086 8.14726 56.01 7.79593 56.5314C7.41343 56.9886 6.86093 57.2514 6.27301 57.2514C6.07184 57.2514 5.81118 57.2186 5.53493 57.1057V59.9386C5.77718 59.9772 6.02509 60 6.27159 60C7.60043 60 8.92076 59.4186 9.84584 58.2929C10.727 57.2214 11.1237 54.6586 11.3036 52.4772H16.7861V50.8286H5.53351Z" fill="#E41E30"/>
<path d="M28.0387 50.8286H16.7861V52.4771H28.0387V50.8286Z" fill="#BF1E2D"/>
<path d="M4.97962 56.7629C4.57021 56.4072 4.32087 55.91 4.27696 55.36C4.23162 54.8157 4.39312 54.2857 4.73312 53.8686C4.88046 53.72 5.15954 53.5529 5.53354 53.3771V50.8286H4.54895C3.74995 51.1986 3.08271 51.6172 2.70162 52.0814C1.0342 54.1114 1.28212 57.1472 3.25412 58.8643C3.92846 59.45 4.71754 59.8043 5.53212 59.9386V57.1057C5.35079 57.03 5.16379 56.9214 4.97962 56.7629Z" fill="#B01A28"/>
<path d="M5.53352 50.4171C5.19069 50.5457 4.86202 50.6829 4.55035 50.8286H5.53352V50.4171Z" fill="#BF1E2D"/>
<path d="M112.305 33.4814C112.305 33.9729 112.459 34.3643 112.768 34.6557C113.077 34.9457 113.552 35.0914 114.188 35.0914H116.946V31.8714H114.107C113.753 31.8714 113.461 31.9214 113.231 32.0214C113.002 32.1214 112.821 32.2529 112.687 32.4171C112.556 32.58 112.458 32.7571 112.396 32.9486C112.335 33.1414 112.305 33.3171 112.305 33.4814ZM116.946 37.74H114.878C114.258 37.74 113.754 37.8443 113.366 38.0543C112.976 38.2643 112.685 38.6957 112.49 39.35C112.349 39.8786 112.194 40.4143 112.027 40.96C111.859 41.5057 111.694 42.0529 111.536 42.5986C111.465 42.8529 111.346 43.0129 111.177 43.0757C111.01 43.14 110.837 43.1714 110.66 43.1714H108.007C107.742 43.1714 107.609 43.0814 107.609 42.8986V42.79C107.609 42.7357 107.617 42.7 107.636 42.6814C107.83 42.0629 108.025 41.4443 108.219 40.8257C108.415 40.2071 108.609 39.5886 108.804 38.9686C108.945 38.5314 109.149 38.11 109.413 37.7C109.678 37.2914 110.157 36.9857 110.846 36.7857V36.7286C109.926 36.42 109.299 35.9429 108.963 35.2957C108.626 34.65 108.459 33.9271 108.459 33.1257C108.459 32.5243 108.569 31.9614 108.79 31.4343C109.011 30.9071 109.33 30.4514 109.746 30.07C110.161 29.6871 110.67 29.3886 111.271 29.1686C111.871 28.9514 112.544 28.8414 113.288 28.8414H119.231C119.69 28.8414 120.044 28.9386 120.292 29.1286C120.539 29.32 120.682 29.5786 120.717 29.9071C120.734 30.0714 120.744 30.2343 120.744 30.3986V30.89V42.7371C120.744 43.0286 120.567 43.1743 120.213 43.1743H117.48C117.25 43.1743 117.105 43.1414 117.042 43.0786C116.981 43.0157 116.949 42.9014 116.949 42.7386V37.74H116.946Z" fill="#5A4B42"/>
<path d="M97.4879 43.0757C97.4086 43.14 97.2443 43.1714 96.9964 43.1714H94.3444C93.9548 43.1714 93.7607 42.99 93.7607 42.6257V29.36C93.7607 29.0157 93.9548 28.8414 94.3444 28.8414H96.9964C97.2443 28.8414 97.4086 28.8743 97.4879 28.9371C97.5673 29 97.6069 29.1429 97.6069 29.36V34.0271H102.568V29.36C102.568 29.0157 102.764 28.8414 103.156 28.8414H105.828C106.077 28.8414 106.239 28.8743 106.31 28.9371C106.38 29 106.416 29.1429 106.416 29.36V42.6257C106.416 42.8629 106.38 43.0129 106.31 43.0757C106.239 43.14 106.079 43.1714 105.828 43.1714H103.156C102.765 43.1714 102.568 42.99 102.568 42.6257V37.1386H97.6069V42.6257C97.6069 42.8629 97.5673 43.0129 97.4879 43.0757Z" fill="#5A4B42"/>
<path d="M57.5209 43.1043C57.4501 43.15 57.3269 43.1729 57.1498 43.1729H54.2584C54.0983 43.1729 53.9793 43.15 53.8999 43.1043C53.8206 43.0586 53.7809 42.9357 53.7809 42.7357V29.2786C53.7809 29.0786 53.8206 28.9557 53.8999 28.91C53.9793 28.8643 54.0983 28.8414 54.2584 28.8414H57.1498C57.3269 28.8414 57.4501 28.8643 57.5209 28.91C57.5918 28.9557 57.6272 29.0771 57.6272 29.2786V34.0286H58.8739C59.3343 34.0286 59.7536 33.9157 60.1347 33.6871C60.5158 33.46 60.8289 32.9629 61.0768 32.1986L62.0047 29.1971C62.0401 29.0343 62.101 28.9343 62.1903 28.8971C62.2795 28.86 62.3674 28.8414 62.4552 28.8414H65.4004C65.5761 28.8414 65.6781 28.8971 65.705 29.0043C65.7319 29.1143 65.7348 29.2143 65.7178 29.3043L64.736 32.88C64.5944 33.4443 64.3776 33.95 64.0858 34.3957C63.7939 34.8414 63.3831 35.1743 62.8519 35.3914L62.8249 35.4457C63.2145 35.5557 63.5319 35.6914 63.7798 35.8557C64.0277 36.0186 64.2359 36.2057 64.4031 36.4143C64.5717 36.6243 64.7077 36.86 64.8154 37.1243C64.9202 37.3886 65.0179 37.6657 65.1058 37.9557L66.4587 42.6786C66.4771 42.77 66.4771 42.8743 66.4587 42.9929C66.4417 43.1114 66.3269 43.17 66.1144 43.17H63.0629C62.9921 43.17 62.9085 43.1514 62.8108 43.1157C62.713 43.08 62.6464 42.9886 62.6124 42.8429L61.3658 38.64C61.1887 38.0586 60.911 37.6543 60.5299 37.4257C60.1489 37.1986 59.6856 37.0857 59.1374 37.0857H57.6258V42.7357C57.6272 42.9357 57.5918 43.0586 57.5209 43.1043Z" fill="#5A4B42"/>
<path d="M75.2165 45.5457C74.8099 46.8014 74.2249 47.6971 73.4655 48.2343C72.7048 48.7714 71.6975 49.0414 70.4409 49.0414C70.0868 49.0414 69.6759 49.0129 69.207 48.9586C68.7381 48.9043 68.2734 48.8029 67.8144 48.6571C67.6019 48.6014 67.4645 48.5371 67.4022 48.4643C67.3413 48.3914 67.3356 48.2529 67.3894 48.0514L67.8399 45.8771C67.8923 45.6571 67.9547 45.54 68.0255 45.52C68.0963 45.5029 68.2281 45.5114 68.4236 45.5471C68.7055 45.6014 68.9449 45.6371 69.139 45.6571C69.3331 45.6757 69.5286 45.6843 69.7227 45.6843C70.3418 45.6843 70.8277 45.58 71.1818 45.3729C71.5346 45.1657 71.8094 44.7471 72.0035 44.1143L72.4809 42.6529H71.7117C71.3037 42.6529 71.0118 42.58 70.8362 42.4343C70.6591 42.29 70.4905 41.9714 70.3318 41.48L66.2986 29.36C66.2278 29.16 66.232 29.0229 66.3113 28.9514C66.3907 28.8786 66.5012 28.8414 66.6428 28.8414H69.7468C70.0117 28.8414 70.193 28.8743 70.2908 28.9371C70.3871 29.0014 70.4636 29.1329 70.516 29.3314L72.029 34.8457L73.2757 39.5957H73.4358L74.7887 34.7643L76.3796 29.3886C76.432 29.1886 76.5028 29.0471 76.5921 28.9657C76.6799 28.8829 76.857 28.8429 77.1233 28.8429H80.2811C80.5814 28.8429 80.6792 28.9886 80.5729 29.28L75.2137 45.5757V45.5457H75.2165Z" fill="#5A4B42"/>
<path d="M86.411 38.3671L84.0494 42.57C83.9432 42.7714 83.8242 42.9214 83.691 43.0214C83.5578 43.1214 83.3581 43.1714 83.0932 43.1714H80.07C79.8745 43.1714 79.7513 43.1171 79.6988 43.0071C79.645 42.8986 79.6719 42.7529 79.7782 42.57L84.2605 35.61L80.2556 29.3314C80.1848 29.2414 80.1635 29.1357 80.189 29.0186C80.2159 28.9 80.3165 28.8414 80.4936 28.8414H83.6768C83.9233 28.8414 84.1146 28.8786 84.2463 28.95C84.3795 29.0229 84.4886 29.16 84.5778 29.3586L86.4351 32.88L88.3178 29.3586C88.4241 29.1586 88.5388 29.0214 88.6635 28.95C88.7868 28.8786 88.9723 28.8414 89.2203 28.8414H92.3511C92.5438 28.8414 92.6514 28.8957 92.6684 29.0043C92.6854 29.1143 92.6769 29.2143 92.6415 29.3043L88.5558 35.5557L93.0665 42.5971C93.1529 42.7429 93.1813 42.8743 93.1458 42.9929C93.1104 43.1114 92.9858 43.17 92.7747 43.17H89.6708C89.3704 43.17 89.1622 43.12 89.0474 43.02C88.9327 42.92 88.8222 42.77 88.7145 42.5686L86.411 38.3671Z" fill="#5A4B42"/>
<path d="M39.2743 16.11H28.0387V27.6886H39.2743V16.11Z" fill="#BF1E2D"/>
<path d="M39.2743 27.6886H28.0387V39.2671H39.2743V27.6886Z" fill="#E41E30"/>
<path d="M44.261 27.6886H39.2743V39.2671H44.261V27.6886Z" fill="#BF1E2D"/>
<path d="M5.53352 17.1043C3.34477 16.6214 -0.134558 17.3971 0.0042749 23.6929C0.0297749 24.8443 0.366942 26.2157 0.902442 27.69H5.53352V17.1043Z" fill="#AB1927"/>
<path d="M28.0387 16.1115H16.7861V27.69H28.0387V16.1115Z" fill="#AB1927"/>
<path d="M16.7861 27.6886V16.11H10.2425V25.6229C10.2425 26.13 9.84301 26.54 9.35143 26.54C8.85984 26.54 8.45893 26.1286 8.45893 25.6229V20.9386C8.45893 19.8414 8.02401 18.7757 7.21226 18.0643C6.74193 17.6543 6.25318 17.2957 5.77009 17.1629C5.69359 17.1429 5.61426 17.1243 5.53351 17.1043V27.6886H16.7861Z" fill="#BF1E2D"/>
<path d="M28.0387 27.6886H16.7861V39.2671H28.0387V27.6886Z" fill="#BF1E2D"/>
<path d="M16.7861 39.2671V27.6886H5.53351V36.7357C6.08601 37.6329 6.63284 38.4843 7.14851 39.2657H16.7861V39.2671Z" fill="#E41E30"/>
<path d="M0.902466 27.6886C1.95363 30.5857 3.77547 33.8857 5.53355 36.7357V27.6886H0.902466Z" fill="#BF1E2D"/>
<path d="M26.3217 36.3914C21.0616 36.3286 16.4702 33.3814 14.3325 28.6986C14.0095 27.9929 14.001 27.2114 14.3098 26.4986C14.6172 25.7857 15.2037 25.2271 15.9616 24.9271C16.3455 24.7757 16.7521 24.6986 17.1686 24.6986C18.4082 24.6986 19.5203 25.3843 20.0048 26.4471C21.1877 29.04 23.5762 30.61 26.394 30.6429H26.4846C29.376 30.6429 31.97 29.01 33.2563 26.38C33.755 25.3586 34.8571 24.6971 36.0613 24.6971C36.5047 24.6971 36.934 24.7843 37.3405 24.9586C38.0885 25.2771 38.6595 25.8486 38.9485 26.5671C39.2375 27.2871 39.2077 28.0686 38.8649 28.7671C36.5642 33.4729 31.8226 36.3943 26.4889 36.3943L26.3217 36.3914Z" fill="white"/>
<path d="M39.2743 4.55142H28.0387V16.1114H39.2743V4.55142Z" fill="#E41E30"/>
<path d="M39.2742 16.1114H44.2609V7.12142C44.2609 6.21428 44.0895 5.34856 43.7877 4.55142H39.2728V16.1114H39.2742Z" fill="#BF1E2D"/>
<path d="M44.261 16.11H39.2743V27.6886H44.261V16.11Z" fill="#AB1927"/>
<path d="M154.778 15.2843C154.778 15.7757 154.932 16.1672 155.243 16.4586C155.551 16.7486 156.026 16.8957 156.662 16.8957H159.422V13.6743H156.583C156.229 13.6743 155.937 13.7257 155.707 13.8257C155.478 13.9257 155.295 14.0572 155.163 14.2214C155.032 14.3843 154.934 14.5629 154.873 14.7543C154.809 14.9429 154.778 15.12 154.778 15.2843ZM159.42 19.5429H157.351C156.732 19.5429 156.227 19.6472 155.839 19.8572C155.449 20.0672 155.158 20.4986 154.964 21.1529C154.822 21.6814 154.666 22.2172 154.499 22.7643C154.33 23.31 154.167 23.8572 154.009 24.4029C153.938 24.6572 153.817 24.8172 153.65 24.88C153.482 24.9443 153.31 24.9757 153.133 24.9757H150.48C150.215 24.9757 150.082 24.8857 150.082 24.7029V24.5943C150.082 24.54 150.092 24.5043 150.109 24.4857C150.303 23.8672 150.498 23.2486 150.692 22.63C150.886 22.0114 151.08 21.3929 151.276 20.7729C151.416 20.3357 151.622 19.9129 151.887 19.5043C152.151 19.0957 152.629 18.79 153.319 18.59V18.5357C152.399 18.2272 151.772 17.75 151.436 17.1029C151.099 16.4572 150.932 15.7343 150.932 14.9329C150.932 14.3314 151.044 13.7686 151.263 13.24C151.484 12.7114 151.803 12.2572 152.219 11.8743C152.635 11.4929 153.143 11.1929 153.745 10.9729C154.346 10.7557 155.017 10.6457 155.761 10.6457H161.704C162.163 10.6457 162.517 10.7414 162.765 10.9329C163.013 11.1243 163.155 11.3829 163.19 11.71C163.209 11.8729 163.217 12.0372 163.217 12.2014V12.6929V24.5386C163.217 24.83 163.04 24.9757 162.686 24.9757H159.953C159.724 24.9757 159.578 24.9443 159.515 24.88C159.453 24.8172 159.423 24.7029 159.423 24.5386V19.5429H159.42Z" fill="#5A4B42"/>
<path d="M131.008 16.84L129.92 19.46L128.619 22.3529C128.461 22.7171 128.274 22.9629 128.061 23.09C127.85 23.2171 127.567 23.2814 127.212 23.2814H125.913C125.505 23.2814 125.209 23.2171 125.024 23.09C124.838 22.9629 124.665 22.7171 124.507 22.3529L123.233 19.5143L122.172 17.0029H122.067V24.4543C122.067 24.6914 122.022 24.8371 121.934 24.8914C121.845 24.9457 121.695 24.9729 121.483 24.9729H118.856C118.661 24.9729 118.516 24.9443 118.419 24.8914C118.323 24.8371 118.273 24.6914 118.273 24.4543V12.2257C118.273 11.1714 118.805 10.6429 119.866 10.6429H121.512C121.883 10.6429 122.205 10.7071 122.481 10.8343C122.754 10.9614 122.998 11.2629 123.209 11.7357L125.119 15.8843L126.472 19.0229H126.632L128.143 15.6114L129.921 11.8714C130.132 11.3986 130.372 11.0771 130.637 10.9029C130.901 10.73 131.291 10.6429 131.804 10.6429H133.315C134.378 10.6429 134.908 11.1529 134.908 12.1714V24.4543C134.908 24.6914 134.868 24.8371 134.789 24.8914C134.709 24.9457 134.554 24.9729 134.324 24.9729H131.725C131.529 24.9729 131.385 24.9443 131.287 24.8914C131.19 24.8371 131.142 24.6914 131.142 24.4543V16.8386H131.008V16.84Z" fill="#5A4B42"/>
<path d="M103.019 11.0814C103.019 10.79 103.179 10.6443 103.499 10.6443H106.358C106.572 10.6443 106.709 10.6714 106.771 10.7257C106.834 10.7814 106.865 10.8986 106.865 11.08V19.4329H106.997C107.331 18.85 107.61 18.3729 107.83 18C108.051 17.6271 108.232 17.3171 108.374 17.0714C108.514 16.8257 108.637 16.6214 108.745 16.4586C108.85 16.2957 108.956 16.1229 109.062 15.94C109.398 15.4129 109.775 14.7943 110.2 14.0829C110.623 13.3743 111.125 12.5271 111.707 11.5443C111.832 11.3629 111.946 11.2129 112.053 11.0943C112.158 10.9757 112.268 10.8857 112.383 10.8214C112.498 10.7571 112.631 10.7114 112.779 10.6843C112.93 10.6571 113.119 10.6429 113.349 10.6429H114.645C115.138 10.6429 115.509 10.7486 115.756 10.9571C116.004 11.1671 116.127 11.5714 116.127 12.1714V24.5357C116.127 24.7186 116.092 24.8357 116.021 24.89C115.95 24.9443 115.825 24.9729 115.65 24.9729H112.781C112.587 24.9729 112.454 24.95 112.383 24.9043C112.312 24.8586 112.277 24.7371 112.277 24.5357V16.3471H112.145C111.737 16.9843 111.353 17.6171 110.99 18.2443C110.628 18.8714 110.252 19.4957 109.863 20.1143C109.456 20.77 109.049 21.4286 108.643 22.0943C108.236 22.7586 107.821 23.4171 107.396 24.0729C107.148 24.4557 106.919 24.7014 106.706 24.81C106.494 24.92 106.175 24.9743 105.75 24.9743H104.503C103.884 24.9743 103.482 24.8471 103.296 24.5914C103.111 24.3371 103.019 23.9543 103.019 23.4457V11.0814Z" fill="#5A4B42"/>
<path d="M64.5504 10.6443C65.1695 10.6443 65.5888 10.7771 65.8112 11.0414C66.0322 11.3043 66.1427 11.7286 66.1427 12.31V24.4571C66.1427 24.6771 66.1031 24.8171 66.0237 24.88C65.9444 24.9443 65.7815 24.9757 65.5336 24.9757H62.8547C62.6067 24.9757 62.4438 24.9343 62.3645 24.8528C62.2852 24.7714 62.2455 24.63 62.2455 24.43V13.8657H58.9815L58.9022 15.2843C58.8129 16.8686 58.6982 18.2328 58.5565 19.3786C58.4148 20.5243 58.1754 21.5028 57.8397 22.3114C57.5039 23.1214 57.0265 23.7814 56.4074 24.29C55.7883 24.8 54.9653 25.2186 53.9396 25.5457C53.6917 25.6357 53.5146 25.6514 53.4083 25.5871C53.3021 25.5228 53.2128 25.4 53.1434 25.2171L52.4266 23.3614C52.3373 23.1243 52.3076 22.9557 52.3345 22.8557C52.3614 22.7571 52.4889 22.6414 52.7184 22.5143C53.1958 22.2971 53.5812 22.0514 53.873 21.7771C54.1648 21.5043 54.4043 21.1128 54.5884 20.6043C54.774 20.0943 54.9199 19.4171 55.0262 18.57C55.1324 17.7228 55.2288 16.61 55.318 15.2271L55.5036 12.2514C55.539 11.65 55.6764 11.2314 55.9144 10.9957C56.1538 10.76 56.5647 10.6414 57.1483 10.6414H64.5504V10.6443Z" fill="#5A4B42"/>
<path d="M144.989 18.4786H142.892C142.644 18.4786 142.379 18.4972 142.096 18.5329C141.814 18.57 141.552 18.6572 141.314 18.7929C141.075 18.93 140.876 19.1257 140.718 19.38C140.559 19.6357 140.478 19.98 140.478 20.4172C140.478 21.0543 140.686 21.5 141.101 21.7543C141.517 22.01 142.079 22.1372 142.786 22.1372C142.891 22.1372 143.034 22.1329 143.211 22.1229C143.387 22.1143 143.578 22.0957 143.78 22.0686C143.983 22.0414 144.191 22.0057 144.404 21.96C144.616 21.9143 144.812 21.8557 144.987 21.7829V18.4786H144.989ZM148.835 23.2014C148.835 23.4386 148.804 23.6372 148.743 23.8014C148.682 23.9657 148.526 24.12 148.28 24.2657C147.873 24.4657 147.437 24.63 146.969 24.7572C146.502 24.8843 146.026 24.9843 145.54 25.0572C145.055 25.1286 144.565 25.1843 144.072 25.22C143.578 25.2572 143.11 25.2743 142.67 25.2743C141.468 25.2743 140.477 25.1557 139.69 24.92C138.906 24.6829 138.274 24.3586 137.798 23.95C137.322 23.5414 136.986 23.0586 136.793 22.5043C136.598 21.9486 136.502 21.3529 136.502 20.7157C136.502 20.0057 136.616 19.3543 136.847 18.7643C137.077 18.1729 137.422 17.6586 137.883 17.2214C138.342 16.7857 138.921 16.4443 139.62 16.1986C140.318 15.9529 141.144 15.8286 142.1 15.8286H145.019V15.3929C145.019 15.1386 144.992 14.8929 144.939 14.6557C144.887 14.42 144.775 14.2143 144.608 14.04C144.439 13.8672 144.205 13.7272 143.905 13.6172C143.605 13.5072 143.207 13.4543 142.712 13.4543C142.447 13.4543 142.146 13.4672 141.81 13.4957C141.474 13.5214 141.138 13.56 140.803 13.6043C140.465 13.6514 140.138 13.7043 139.821 13.7686C139.503 13.8329 139.22 13.9014 138.971 13.9743C138.741 14.0286 138.583 14.0286 138.493 13.9743C138.404 13.9186 138.343 13.8014 138.308 13.62L137.884 11.7086C137.83 11.5086 137.826 11.3686 137.87 11.2857C137.914 11.2043 138.007 11.1343 138.149 11.08C138.945 10.7886 139.78 10.58 140.655 10.4529C141.531 10.3257 142.402 10.2614 143.269 10.2614C145.191 10.2614 146.6 10.6843 147.496 11.5314C148.392 12.3772 148.839 13.6286 148.839 15.2829V23.2014H148.835Z" fill="#5A4B42"/>
<path d="M83.0422 17.7957C83.0422 16.5329 82.851 15.52 82.4713 14.7614C82.0902 14.0014 81.4584 13.6214 80.5744 13.6214C79.7428 13.6214 79.1067 13.9829 78.6647 14.7072C78.2227 15.43 78.0017 16.4429 78.0017 17.7429C78.0017 19.1157 78.1958 20.1543 78.5854 20.8614C78.9735 21.5657 79.6195 21.9186 80.522 21.9186C80.964 21.9186 81.3436 21.8186 81.6624 21.6172C81.9811 21.4157 82.2418 21.1314 82.4458 20.7657C82.6484 20.4 82.8 19.9643 82.8963 19.46C82.994 18.9543 83.0422 18.4 83.0422 17.7957ZM72.1126 24.4286C72.1126 24.6657 72.0772 24.8157 72.0064 24.8786C71.9355 24.9429 71.767 24.9743 71.502 24.9743H68.8486C68.459 24.9743 68.265 24.7929 68.265 24.4286V11.1629C68.265 10.8172 68.459 10.6443 68.8486 10.6443H71.502C71.767 10.6443 71.9355 10.6772 72.0064 10.74C72.0772 10.8043 72.1126 10.9443 72.1126 11.1629V15.9114H74.1285C74.4289 14.1472 75.1273 12.7629 76.2238 11.7629C77.3203 10.7629 78.7625 10.2614 80.5489 10.2614C81.627 10.2614 82.579 10.4357 83.4006 10.78C84.2223 11.1257 84.9037 11.6214 85.4435 12.2672C85.9832 12.9129 86.3898 13.6957 86.6646 14.6143C86.9395 15.5329 87.0755 16.5743 87.0755 17.74C87.0755 20.0857 86.5357 21.93 85.4576 23.2672C84.3781 24.6043 82.7249 25.2729 80.4965 25.2729C78.4267 25.2729 76.874 24.7243 75.8399 23.6214C74.8043 22.5214 74.2079 20.9786 74.0492 18.9957H72.1126V24.4286Z" fill="#5A4B42"/>
<path d="M167.466 7.15715H167.779C167.874 7.15715 167.957 7.14572 168.027 7.12143C168.097 7.09715 168.154 7.06286 168.201 7.02C168.246 6.97715 168.28 6.92715 168.303 6.86858C168.326 6.81 168.335 6.74429 168.335 6.67429C168.335 6.53286 168.292 6.42429 168.201 6.34857C168.11 6.27286 167.971 6.23572 167.786 6.23572H167.464V7.15715H167.466ZM167.466 7.52857V8.61572H166.961V5.83429H167.786C167.969 5.83429 168.127 5.85286 168.258 5.89286C168.389 5.93143 168.497 5.98715 168.582 6.05715C168.666 6.12715 168.728 6.21143 168.768 6.31C168.806 6.40715 168.827 6.51572 168.827 6.63429C168.827 6.72858 168.814 6.81572 168.787 6.9C168.76 6.98286 168.722 7.05857 168.671 7.12715C168.62 7.19572 168.558 7.25429 168.483 7.30572C168.409 7.35715 168.324 7.39857 168.231 7.42857C168.294 7.46572 168.348 7.51857 168.395 7.58857L169.072 8.61572H168.617C168.531 8.61572 168.47 8.58143 168.43 8.51143L167.861 7.62C167.84 7.58572 167.817 7.56143 167.79 7.54857C167.765 7.53429 167.728 7.52715 167.677 7.52715H167.466V7.52857Z" fill="#5A4B42"/>
<path d="M169.117 5.98856C168.779 5.63856 168.309 5.42285 167.789 5.42285C167.27 5.42285 166.8 5.63999 166.46 5.98856C166.12 6.33856 165.91 6.82142 165.91 7.35714C165.91 7.88999 166.121 8.37428 166.46 8.72428C166.8 9.07428 167.27 9.29142 167.789 9.29142C168.309 9.29142 168.779 9.07428 169.117 8.72428C169.457 8.37428 169.669 7.88999 169.669 7.35714C169.669 6.82142 169.457 6.33856 169.117 5.98856ZM167.789 5.08142C168.399 5.08142 168.952 5.33571 169.353 5.74856C169.752 6.15856 170 6.72856 170 7.35571C170 7.98428 169.752 8.55285 169.353 8.96428C168.953 9.37571 168.399 9.62999 167.789 9.62999C167.178 9.62999 166.626 9.37571 166.226 8.96428C165.825 8.55285 165.579 7.98428 165.579 7.35571C165.579 6.72714 165.825 6.15856 166.226 5.74714C166.626 5.33571 167.178 5.08142 167.789 5.08142Z" fill="#5A4B42"/>
<path d="M94.741 21.9729C95.3063 21.9729 95.7752 21.8686 96.1478 21.6586C96.519 21.45 96.8094 21.1729 97.0233 20.8257C97.2358 20.48 97.386 20.0986 97.4738 19.6786C97.5616 19.2614 97.6055 18.8329 97.6055 18.3957C97.6055 17.9971 97.5701 17.5914 97.5007 17.1814C97.4299 16.7729 97.3024 16.4029 97.1154 16.0757C96.9298 15.7486 96.6776 15.48 96.3603 15.2714C96.0415 15.0614 95.6265 14.9571 95.1136 14.9571C94.6532 14.9571 94.1673 15.03 93.6545 15.1757C93.1402 15.3214 92.6812 15.5214 92.2746 15.7771C92.2038 16.3586 92.1599 16.8457 92.1415 17.2371C92.1245 17.6286 92.116 18.0329 92.116 18.4514C92.116 18.9429 92.1556 19.4014 92.235 19.83C92.3143 20.2571 92.4517 20.6314 92.6458 20.9486C92.8399 21.2671 93.1062 21.5186 93.442 21.7C93.7777 21.88 94.2112 21.9729 94.741 21.9729ZM96.3065 11.6814C97.2967 11.6814 98.1283 11.8543 98.7998 12.2C99.4713 12.5457 100.021 13.0186 100.445 13.62C100.87 14.22 101.174 14.9214 101.36 15.7229C101.545 16.5229 101.639 17.37 101.639 18.2614C101.639 19.1343 101.518 19.9857 101.28 20.8143C101.042 21.6414 100.649 22.3829 100.1 23.0386C99.552 23.6943 98.8395 24.2257 97.964 24.6343C97.0885 25.0443 96.0047 25.2586 94.7127 25.2757C93.2635 25.2757 92.1004 25.0614 91.2249 24.6343C90.3508 24.2071 89.6736 23.6386 89.1962 22.9286C88.7188 22.2186 88.4043 21.4043 88.2541 20.4857C88.104 19.5657 88.0289 18.6057 88.0289 17.6057C88.0289 16.0957 88.0997 14.7029 88.24 13.4286C88.3816 12.1557 88.6692 11.0229 89.1027 10.03C89.5362 9.03857 90.1454 8.19714 90.933 7.50571C91.7193 6.81428 92.7591 6.29571 94.0497 5.94857C94.6688 5.76714 95.4069 5.59 96.2654 5.41714C97.1225 5.24428 98.0376 5.05714 99.0109 4.85714C99.1525 4.82143 99.2715 4.81143 99.3693 4.82857C99.4656 4.84714 99.5322 4.95571 99.5676 5.15571L100.124 7.44857C100.195 7.68571 100.185 7.83428 100.099 7.89857C100.01 7.96285 99.9204 8.01286 99.834 8.04857C99.2149 8.21143 98.6751 8.34 98.2161 8.43C97.7557 8.52143 97.2953 8.62143 96.8363 8.73143C96.0047 8.91286 95.3247 9.10857 94.7935 9.31714C94.2636 9.52714 93.8344 9.77714 93.5071 10.0686C93.1784 10.36 92.9362 10.72 92.7775 11.1457C92.6174 11.5743 92.5126 12.0971 92.4588 12.7157C92.4758 12.7157 92.4942 12.7257 92.5126 12.7429L92.565 12.7971C93.1841 12.3786 93.816 12.0886 94.462 11.9243C95.108 11.7643 95.7228 11.6814 96.3065 11.6814Z" fill="#5A4B42"/>
<path d="M43.7892 4.55143C43.0157 2.49857 41.3483 0.908574 39.2743 0.288574V4.55143H43.7892Z" fill="#AB1927"/>
<path d="M16.7861 0.019989C14.0109 0.174275 11.6748 2.0057 10.7157 4.55142H16.7861V0.019989Z" fill="#BF1E2D"/>
<path d="M10.2426 16.1114H16.7861V4.55142H10.7157C10.414 5.34856 10.2426 6.21428 10.2426 7.12142V16.1114Z" fill="#E41E30"/>
<path d="M28.0387 4.55142H16.7861V16.1114H28.0387V4.55142Z" fill="#BF1E2D"/>
<path d="M28.0387 0V4.55143H39.2743V0.287143C38.6609 0.102857 38.012 0 37.3405 0H28.0387Z" fill="#BF1E2D"/>
<path d="M28.0387 4.55143V0H17.1644C17.0369 0 16.9122 0.0128571 16.7861 0.0185714V4.55H28.0387V4.55143Z" fill="#AB1927"/>
</svg>
