<svg width="85" height="30" viewBox="0 0 85 30" fill="none" xmlns="http://www.w3.org/2000/svg">
<path d="M19.6371 26.2386H20.9773C21.2727 26.2386 21.5681 26.1229 21.7933 25.8907C21.9279 25.7522 22.0214 25.5886 22.0752 25.4143H19.6371V26.2386Z" fill="white"/>
<path d="M19.6371 25.4143H14.0193V26.2386H19.6371V25.4143Z" fill="white"/>
<path d="M19.6371 19.6336H14.0193V25.4143H19.6371V19.6336Z" fill="white"/>
<path d="M19.6371 25.4143H22.0752C22.1121 25.2964 22.1312 25.1736 22.1312 25.0514V19.6336H19.6379V25.4143H19.6371Z" fill="white"/>
<path d="M14.0194 19.6336H8.39307V25.4143H14.0194V19.6336Z" fill="white"/>
<path d="M3.57358 19.6336C3.80945 19.9921 4.03187 20.3214 4.2302 20.6093V24.7621C3.76128 24.88 3.24137 25.03 2.76678 25.2093V25.415H8.39308V19.6343H3.57358V19.6336Z" fill="white"/>
<path d="M2.76678 25.4143V26.6886C3.13583 26.515 3.69258 26.3236 4.32016 26.1543C4.23303 27.1543 4.07366 28.005 3.89799 28.2657C3.70674 28.4943 3.43049 28.6257 3.13653 28.6257C3.03595 28.6257 2.90562 28.6093 2.76749 28.5529V29.9693C2.88862 29.9886 3.01258 30 3.13583 30C3.80024 30 4.46041 29.7093 4.92295 29.1465C5.36353 28.6107 5.56187 27.3293 5.65183 26.2386H8.39308V25.4143H2.76678Z" fill="white"/>
<path d="M14.0194 25.4143H8.39307V26.2386H14.0194V25.4143Z" fill="white"/>
<path d="M2.48978 28.3815C2.28507 28.2036 2.16041 27.955 2.13845 27.68C2.11578 27.4079 2.19653 27.1429 2.36653 26.9343C2.4402 26.86 2.57974 26.7764 2.76674 26.6886V25.4143H2.27445C1.87495 25.5993 1.54132 25.8086 1.35078 26.0407C0.517072 27.0557 0.64103 28.5736 1.62703 29.4322C1.9642 29.725 2.35874 29.9022 2.76603 29.9693V28.5529C2.67536 28.515 2.58186 28.4607 2.48978 28.3815Z" fill="white"/>
<path d="M2.76673 25.2086C2.59531 25.2727 2.43098 25.3412 2.27515 25.4139H2.76673V25.2086Z" fill="white"/>
<path d="M56.1524 16.7407C56.1524 16.9864 56.2297 17.1821 56.3841 17.3279C56.5385 17.4729 56.7758 17.5457 57.0938 17.5457H58.4729V15.9357H57.0534C56.8764 15.9357 56.7304 15.9607 56.6157 16.0107C56.5009 16.0607 56.4103 16.1264 56.3437 16.2086C56.2778 16.29 56.2289 16.3786 56.1978 16.4743C56.1673 16.5707 56.1524 16.6586 56.1524 16.7407ZM58.4729 18.87H57.4388C57.1292 18.87 56.8771 18.9221 56.683 19.0271C56.4882 19.1321 56.3423 19.3479 56.2452 19.675C56.1744 19.9393 56.0972 20.2071 56.0136 20.48C55.9293 20.7529 55.8472 21.0264 55.7678 21.2993C55.7324 21.4264 55.6729 21.5064 55.5886 21.5379C55.505 21.57 55.4186 21.5857 55.3301 21.5857H54.0034C53.8709 21.5857 53.8043 21.5407 53.8043 21.4493V21.395C53.8043 21.3679 53.8086 21.35 53.8178 21.3407C53.9148 21.0314 54.0126 20.7221 54.1096 20.4129C54.2074 20.1036 54.3044 19.7943 54.4022 19.4843C54.4723 19.2657 54.5743 19.055 54.7067 18.85C54.8392 18.6457 55.0786 18.4929 55.4229 18.3929V18.3643C54.9632 18.21 54.6494 17.9714 54.4815 17.6479C54.3129 17.325 54.2293 16.9636 54.2293 16.5629C54.2293 16.2621 54.2846 15.9807 54.3951 15.7171C54.5056 15.4536 54.6649 15.2257 54.8732 15.035C55.0807 14.8436 55.335 14.6943 55.6354 14.5843C55.9357 14.4757 56.2722 14.4207 56.644 14.4207H59.6155C59.845 14.4207 60.0221 14.4693 60.146 14.5643C60.2693 14.66 60.3408 14.7893 60.3585 14.9536C60.367 15.0357 60.372 15.1171 60.372 15.1993V15.445V21.3686C60.372 21.5143 60.2834 21.5871 60.1064 21.5871H58.74C58.6252 21.5871 58.5523 21.5707 58.5211 21.5393C58.4906 21.5079 58.4744 21.4507 58.4744 21.3693V18.87H58.4729Z" fill="white"/>
<path d="M48.744 21.5379C48.7043 21.57 48.6222 21.5857 48.4982 21.5857H47.1722C46.9774 21.5857 46.8804 21.495 46.8804 21.3129V14.68C46.8804 14.5079 46.9774 14.4207 47.1722 14.4207H48.4982C48.6222 14.4207 48.7043 14.4371 48.744 14.4686C48.7837 14.5 48.8035 14.5714 48.8035 14.68V17.0136H51.2841V14.68C51.2841 14.5079 51.3818 14.4207 51.578 14.4207H52.914C53.0386 14.4207 53.1194 14.4371 53.1548 14.4686C53.1902 14.5 53.2079 14.5714 53.2079 14.68V21.3129C53.2079 21.4314 53.1902 21.5064 53.1548 21.5379C53.1194 21.57 53.0393 21.5857 52.914 21.5857H51.578C51.3825 21.5857 51.2841 21.495 51.2841 21.3129V18.5693H48.8035V21.3129C48.8035 21.4314 48.7837 21.5064 48.744 21.5379Z" fill="white"/>
<path d="M28.7605 21.5521C28.7251 21.575 28.6635 21.5864 28.5749 21.5864H27.1292C27.0492 21.5864 26.9897 21.575 26.95 21.5521C26.9103 21.5293 26.8905 21.4679 26.8905 21.3679V14.6393C26.8905 14.5393 26.9103 14.4779 26.95 14.455C26.9897 14.4321 27.0492 14.4207 27.1292 14.4207H28.5749C28.6635 14.4207 28.7251 14.4321 28.7605 14.455C28.7959 14.4779 28.8136 14.5386 28.8136 14.6393V17.0143H29.437C29.6672 17.0143 29.8768 16.9579 30.0674 16.8436C30.2579 16.73 30.4145 16.4814 30.5384 16.0993L31.0024 14.5986C31.0201 14.5171 31.0505 14.4671 31.0952 14.4486C31.1398 14.43 31.1837 14.4207 31.2276 14.4207H32.7003C32.7881 14.4207 32.8391 14.4486 32.8525 14.5021C32.866 14.5571 32.8674 14.6071 32.8589 14.6521L32.368 16.44C32.2972 16.7221 32.1888 16.975 32.0429 17.1979C31.897 17.4207 31.6916 17.5871 31.426 17.6957L31.4125 17.7229C31.6073 17.7779 31.766 17.8457 31.8899 17.9279C32.0139 18.0093 32.118 18.1029 32.2016 18.2071C32.2859 18.3121 32.3539 18.43 32.4077 18.5621C32.4601 18.6943 32.509 18.8329 32.5529 18.9779L33.2294 21.3393C33.2386 21.385 33.2386 21.4371 33.2294 21.4964C33.2209 21.5557 33.1635 21.585 33.0573 21.585H31.5315C31.4961 21.585 31.4543 21.5757 31.4054 21.5579C31.3565 21.54 31.3233 21.4943 31.3063 21.4214L30.6829 19.32C30.5944 19.0293 30.4555 18.8271 30.265 18.7129C30.0745 18.5993 29.8428 18.5429 29.5687 18.5429H28.8129V21.3679C28.8136 21.4679 28.7959 21.5293 28.7605 21.5521Z" fill="white"/>
<path d="M37.6083 22.7729C37.405 23.4007 37.1125 23.8486 36.7328 24.1171C36.3524 24.3857 35.8488 24.5207 35.2205 24.5207C35.0434 24.5207 34.838 24.5064 34.6035 24.4793C34.3691 24.4521 34.1367 24.4014 33.9072 24.3286C33.801 24.3007 33.7323 24.2686 33.7011 24.2321C33.6707 24.1957 33.6678 24.1264 33.6947 24.0257L33.92 22.9386C33.9462 22.8286 33.9774 22.77 34.0128 22.76C34.0482 22.7514 34.1141 22.7557 34.2118 22.7736C34.3528 22.8007 34.4725 22.8186 34.5695 22.8286C34.6666 22.8379 34.7643 22.8421 34.8614 22.8421C35.1709 22.8421 35.4139 22.79 35.591 22.6864C35.7673 22.5829 35.9047 22.3736 36.0018 22.0571L36.2405 21.3264H35.8559C35.6519 21.3264 35.506 21.29 35.4181 21.2171C35.3296 21.145 35.2453 20.9857 35.166 20.74L33.1493 14.68C33.1139 14.58 33.116 14.5114 33.1557 14.4757C33.1954 14.4393 33.2506 14.4207 33.3215 14.4207H34.8734C35.0059 14.4207 35.0965 14.4371 35.1454 14.4686C35.1936 14.5007 35.2318 14.5664 35.258 14.6657L36.0145 17.4229L36.6379 19.7979H36.7179L37.3944 17.3821L38.1898 14.6943C38.216 14.5943 38.2515 14.5236 38.2961 14.4829C38.34 14.4414 38.4285 14.4214 38.5617 14.4214H40.1406C40.2908 14.4214 40.3396 14.4943 40.2865 14.64L37.6069 22.7879V22.7729H37.6083Z" fill="white"/>
<path d="M43.2055 19.1836L42.0247 21.285C41.9716 21.3857 41.9121 21.4607 41.8455 21.5107C41.7789 21.5607 41.679 21.5857 41.5466 21.5857H40.035C39.9373 21.5857 39.8756 21.5586 39.8494 21.5036C39.8225 21.4493 39.836 21.3764 39.8891 21.285L42.1303 17.805L40.1278 14.6657C40.0924 14.6207 40.0818 14.5679 40.0945 14.5093C40.108 14.45 40.1583 14.4207 40.2468 14.4207H41.8384C41.9617 14.4207 42.0573 14.4393 42.1232 14.475C42.1898 14.5114 42.2443 14.58 42.2889 14.6793L43.2175 16.44L44.1589 14.6793C44.212 14.5793 44.2694 14.5107 44.3318 14.475C44.3934 14.4393 44.4862 14.4207 44.6101 14.4207H46.1755C46.2719 14.4207 46.3257 14.4479 46.3342 14.5021C46.3427 14.5571 46.3385 14.6071 46.3208 14.6521L44.2779 17.7779L46.5333 21.2986C46.5765 21.3714 46.5906 21.4371 46.5729 21.4964C46.5552 21.5557 46.4929 21.585 46.3873 21.585H44.8354C44.6852 21.585 44.5811 21.56 44.5237 21.51C44.4663 21.46 44.4111 21.385 44.3573 21.2843L43.2055 19.1836Z" fill="white"/>
<path d="M19.6371 8.05499H14.0193V13.8443H19.6371V8.05499Z" fill="white"/>
<path d="M19.6371 13.8443H14.0193V19.6336H19.6371V13.8443Z" fill="white"/>
<path d="M22.1305 13.8443H19.6371V19.6336H22.1305V13.8443Z" fill="white"/>
<path d="M2.76676 8.55219C1.67239 8.31076 -0.0672792 8.69861 0.00213745 11.8465C0.0148874 12.4222 0.183471 13.1079 0.451221 13.845H2.76676V8.55219Z" fill="white"/>
<path d="M14.0194 8.05576H8.39307V13.845H14.0194V8.05576Z" fill="white"/>
<path d="M8.39308 13.8443V8.05499H5.12128V12.8114C5.12128 13.065 4.92153 13.27 4.67574 13.27C4.42995 13.27 4.22949 13.0643 4.22949 12.8114V10.4693C4.22949 9.92071 4.01203 9.38785 3.60616 9.03214C3.37099 8.82714 3.12662 8.64785 2.88508 8.58142C2.84683 8.57142 2.80716 8.56214 2.76678 8.55214V13.8443H8.39308Z" fill="white"/>
<path d="M14.0194 13.8443H8.39307V19.6336H14.0194V13.8443Z" fill="white"/>
<path d="M8.39308 19.6336V13.8443H2.76678V18.3678C3.04303 18.8164 3.31645 19.2421 3.57428 19.6328H8.39308V19.6336Z" fill="white"/>
<path d="M0.451233 13.8443C0.976816 15.2928 1.88773 16.9428 2.76678 18.3678V13.8443H0.451233Z" fill="white"/>
<path d="M19.6371 2.27573H14.0193V8.05572H19.6371V2.27573Z" fill="white"/>
<path d="M19.6371 8.05572H22.1305V3.56073C22.1305 3.10715 22.0447 2.6743 21.8939 2.27573H19.6364V8.05572H19.6371Z" fill="white"/>
<path d="M22.1305 8.05499H19.6371V13.8443H22.1305V8.05499Z" fill="white"/>
<path d="M77.389 7.64216C77.389 7.88788 77.4662 8.08359 77.6213 8.2293C77.7757 8.3743 78.013 8.44788 78.331 8.44788H79.7109V6.83716H78.2914C78.1143 6.83716 77.9684 6.86288 77.8536 6.91288C77.7389 6.96288 77.6475 7.02859 77.5816 7.11073C77.5158 7.19216 77.4669 7.28145 77.4364 7.37716C77.4045 7.47145 77.389 7.56002 77.389 7.64216ZM79.7102 9.77145H78.6753C78.3658 9.77145 78.1136 9.82359 77.9195 9.92859C77.7247 10.0336 77.5788 10.2493 77.4818 10.5764C77.4109 10.8407 77.333 11.1086 77.2494 11.3822C77.1651 11.655 77.0837 11.9286 77.0043 12.2014C76.9689 12.3286 76.9087 12.4086 76.8251 12.44C76.7408 12.4722 76.6551 12.4879 76.5666 12.4879H75.2399C75.1074 12.4879 75.0408 12.4429 75.0408 12.3514V12.2972C75.0408 12.27 75.0458 12.2522 75.0543 12.2429C75.1513 11.9336 75.2491 11.6243 75.3461 11.315C75.4432 11.0057 75.5402 10.6964 75.638 10.3864C75.7081 10.1679 75.8108 9.95645 75.9432 9.75216C76.0757 9.54788 76.3144 9.39502 76.6594 9.29502V9.26788C76.1997 9.11359 75.8859 8.87502 75.718 8.55145C75.5494 8.22859 75.4658 7.86716 75.4658 7.46645C75.4658 7.16573 75.5218 6.8843 75.6316 6.62002C75.7421 6.35573 75.9015 6.12859 76.1097 5.93716C76.3172 5.74645 76.5715 5.59645 76.8726 5.48645C77.1729 5.37788 77.5087 5.32288 77.8805 5.32288H80.852C81.0815 5.32288 81.2586 5.37073 81.3826 5.46645C81.5065 5.56216 81.5773 5.69145 81.5951 5.85502C81.6043 5.93645 81.6085 6.01859 81.6085 6.10073V6.34645V12.2693C81.6085 12.415 81.52 12.4879 81.3429 12.4879H79.9765C79.8618 12.4879 79.7888 12.4722 79.7576 12.44C79.7265 12.4086 79.7116 12.3514 79.7116 12.2693V9.77145H79.7102Z" fill="white"/>
<path d="M65.5038 8.42001L64.9598 9.73001L64.3096 11.1764C64.2302 11.3586 64.1367 11.4814 64.0305 11.545C63.9249 11.6086 63.7833 11.6407 63.6062 11.6407H62.9566C62.7526 11.6407 62.6046 11.6086 62.5118 11.545C62.419 11.4814 62.3326 11.3586 62.2533 11.1764L61.6165 9.75716L61.0859 8.50144H61.0335V12.2272C61.0335 12.3457 61.0108 12.4186 60.9669 12.4457C60.9223 12.4729 60.8472 12.4864 60.7417 12.4864H59.4277C59.3307 12.4864 59.2577 12.4722 59.2096 12.4457C59.1614 12.4186 59.1366 12.3457 59.1366 12.2272V6.11287C59.1366 5.58573 59.4022 5.32144 59.9328 5.32144H60.7558C60.9414 5.32144 61.1022 5.35358 61.2403 5.41716C61.3771 5.48073 61.4989 5.63144 61.6044 5.86787L62.5593 7.94216L63.2357 9.51144H63.3158L64.0716 7.80573L64.9605 5.93573C65.0661 5.6993 65.1858 5.53858 65.3182 5.45144C65.4507 5.36501 65.6455 5.32144 65.9019 5.32144H66.6577C67.1889 5.32144 67.4538 5.57644 67.4538 6.08573V12.2272C67.4538 12.3457 67.434 12.4186 67.3943 12.4457C67.3547 12.4729 67.2768 12.4864 67.162 12.4864H65.8622C65.7645 12.4864 65.6922 12.4722 65.6433 12.4457C65.5952 12.4186 65.5711 12.3457 65.5711 12.2272V8.4193H65.5038V8.42001Z" fill="white"/>
<path d="M51.5093 5.54073C51.5093 5.39501 51.5893 5.32216 51.7494 5.32216H53.1788C53.2858 5.32216 53.3545 5.33573 53.3856 5.36287C53.4168 5.39073 53.4324 5.4493 53.4324 5.54001V9.71644H53.4983C53.6654 9.42502 53.805 9.18644 53.9148 9.00002C54.0253 8.81359 54.1159 8.65859 54.1868 8.53573C54.2569 8.41287 54.3185 8.31073 54.3724 8.2293C54.4248 8.14787 54.4779 8.06144 54.531 7.97002C54.6989 7.70644 54.8873 7.39716 55.0998 7.04144C55.3116 6.68716 55.5624 6.26359 55.8535 5.77216C55.9158 5.68144 55.9732 5.60644 56.0263 5.54716C56.0787 5.48787 56.134 5.44287 56.1914 5.41073C56.2487 5.37858 56.3153 5.35573 56.3897 5.34216C56.4648 5.32858 56.5597 5.32144 56.6744 5.32144H57.3226C57.5691 5.32144 57.7547 5.3743 57.8779 5.47858C58.0019 5.58358 58.0635 5.78573 58.0635 6.08573V12.2679C58.0635 12.3593 58.0458 12.4179 58.0104 12.445C57.9749 12.4722 57.9126 12.4864 57.8248 12.4864H56.3904C56.2934 12.4864 56.2268 12.475 56.1914 12.4522C56.1559 12.4293 56.1382 12.3686 56.1382 12.2679V8.17359H56.0724C55.8684 8.49216 55.6764 8.80859 55.4951 9.12216C55.3137 9.43573 55.126 9.74787 54.9312 10.0572C54.7279 10.385 54.5247 10.7143 54.3214 11.0472C54.1181 11.3793 53.9105 11.7086 53.698 12.0364C53.5741 12.2279 53.4593 12.3507 53.3531 12.405C53.2468 12.46 53.0874 12.4872 52.8749 12.4872H52.2516C51.9421 12.4872 51.7409 12.4236 51.6481 12.2957C51.5553 12.1686 51.5093 11.9772 51.5093 11.7229V5.54073Z" fill="white"/>
<path d="M32.2752 5.32214C32.5848 5.32214 32.7944 5.38857 32.9056 5.52071C33.0161 5.65214 33.0714 5.86428 33.0714 6.155V12.2286C33.0714 12.3386 33.0515 12.4086 33.0119 12.44C32.9722 12.4721 32.8908 12.4879 32.7668 12.4879H31.4273C31.3034 12.4879 31.2219 12.4671 31.1823 12.4264C31.1426 12.3857 31.1228 12.315 31.1228 12.215V6.93285H29.4908L29.4511 7.64214C29.4065 8.43428 29.3491 9.11642 29.2783 9.68928C29.2074 10.2621 29.0877 10.7514 28.9198 11.1557C28.752 11.5607 28.5133 11.8907 28.2037 12.145C27.8942 12.4 27.4826 12.6093 26.9698 12.7729C26.8458 12.8179 26.7573 12.8257 26.7042 12.7936C26.651 12.7614 26.6064 12.7 26.5717 12.6086L26.2133 11.6807C26.1687 11.5621 26.1538 11.4779 26.1673 11.4279C26.1807 11.3786 26.2445 11.3207 26.3592 11.2571C26.5979 11.1486 26.7906 11.0257 26.9365 10.8886C27.0824 10.7521 27.2021 10.5564 27.2942 10.3021C27.387 10.0471 27.46 9.70857 27.5131 9.285C27.5662 8.86142 27.6144 8.305 27.659 7.61357L27.7518 6.12571C27.7695 5.825 27.8382 5.61571 27.9572 5.49785C28.0769 5.38 28.2823 5.32071 28.5742 5.32071H32.2752V5.32214Z" fill="white"/>
<path d="M72.4944 9.23928H71.446C71.3221 9.23928 71.1896 9.24856 71.0479 9.26642C70.907 9.28499 70.7759 9.32856 70.6569 9.39642C70.5372 9.46499 70.4381 9.56285 70.3587 9.68999C70.2794 9.81785 70.239 9.98999 70.239 10.2086C70.239 10.5271 70.3431 10.75 70.5507 10.8771C70.7582 11.005 71.0394 11.0686 71.3929 11.0686C71.4453 11.0686 71.5169 11.0664 71.6054 11.0614C71.6932 11.0571 71.7889 11.0479 71.8901 11.0343C71.9914 11.0207 72.0956 11.0029 72.2018 10.98C72.3081 10.9571 72.4058 10.9279 72.4937 10.8914V9.23928H72.4944ZM74.4175 11.6007C74.4175 11.7193 74.4019 11.8186 74.3714 11.9007C74.341 11.9829 74.2631 12.06 74.1398 12.1329C73.9365 12.2329 73.7184 12.315 73.4846 12.3786C73.2509 12.4421 73.0129 12.4921 72.7699 12.5286C72.5277 12.5643 72.2826 12.5921 72.0361 12.61C71.7889 12.6286 71.5551 12.6371 71.3348 12.6371C70.7342 12.6371 70.2383 12.5779 69.8452 12.46C69.4528 12.3414 69.1369 12.1793 68.8989 11.975C68.6609 11.7707 68.493 11.5293 68.3966 11.2521C68.2989 10.9743 68.2507 10.6764 68.2507 10.3579C68.2507 10.0029 68.3081 9.67714 68.4236 9.38214C68.5383 9.08642 68.7112 8.82928 68.9414 8.61071C69.1709 8.39285 69.4606 8.22214 69.8098 8.09928C70.159 7.97642 70.5719 7.91428 71.0501 7.91428H72.5092V7.69642C72.5092 7.56928 72.4958 7.44642 72.4696 7.32785C72.4434 7.20999 72.3874 7.10714 72.3038 7.01999C72.2195 6.93356 72.1027 6.86356 71.9525 6.80856C71.8023 6.75356 71.6033 6.72714 71.3561 6.72714C71.2236 6.72714 71.0727 6.73356 70.9049 6.74785C70.737 6.76071 70.5691 6.77999 70.4012 6.80214C70.2327 6.82571 70.069 6.85214 69.9104 6.88428C69.7517 6.91642 69.61 6.95071 69.4854 6.98714C69.3706 7.01428 69.2913 7.01428 69.2467 6.98714C69.202 6.95928 69.1716 6.90071 69.1539 6.80999L68.9421 5.85428C68.9152 5.75428 68.913 5.68428 68.935 5.64285C68.9569 5.60214 69.0037 5.56714 69.0745 5.53999C69.4726 5.39428 69.8898 5.28999 70.3276 5.22642C70.7653 5.16285 71.2009 5.13071 71.6344 5.13071C72.5956 5.13071 73.2997 5.34214 73.7481 5.76571C74.1958 6.18856 74.4196 6.81428 74.4196 7.64142V11.6007H74.4175Z" fill="white"/>
<path d="M41.5211 8.89785C41.5211 8.26642 41.4255 7.75999 41.2356 7.38071C41.0451 7.00071 40.7292 6.81071 40.2872 6.81071C39.8714 6.81071 39.5533 6.99142 39.3323 7.35356C39.1113 7.71499 39.0008 8.22142 39.0008 8.87142C39.0008 9.55785 39.0979 10.0771 39.2927 10.4307C39.4867 10.7828 39.8097 10.9593 40.261 10.9593C40.482 10.9593 40.6718 10.9093 40.8312 10.8086C40.9905 10.7078 41.1209 10.5657 41.2229 10.3828C41.3242 10.2 41.4 9.98213 41.4481 9.72999C41.497 9.47713 41.5211 9.19999 41.5211 8.89785ZM36.0563 12.2143C36.0563 12.3328 36.0386 12.4078 36.0032 12.4393C35.9677 12.4714 35.8834 12.4871 35.751 12.4871H34.4243C34.2295 12.4871 34.1324 12.3964 34.1324 12.2143V5.58142C34.1324 5.40856 34.2295 5.32214 34.4243 5.32214H35.751C35.8834 5.32214 35.9677 5.33856 36.0032 5.36999C36.0386 5.40214 36.0563 5.47214 36.0563 5.58142V7.95571H37.0642C37.2144 7.07356 37.5636 6.38142 38.1119 5.88142C38.6601 5.38142 39.3812 5.13071 40.2744 5.13071C40.8135 5.13071 41.2895 5.21785 41.7003 5.38999C42.1111 5.56285 42.4518 5.81071 42.7217 6.13356C42.9916 6.45642 43.1949 6.84785 43.3323 7.30713C43.4697 7.76642 43.5377 8.28714 43.5377 8.86999C43.5377 10.0428 43.2678 10.965 42.7288 11.6336C42.189 12.3021 41.3624 12.6364 40.2482 12.6364C39.2133 12.6364 38.437 12.3621 37.9199 11.8107C37.4021 11.2607 37.1039 10.4893 37.0246 9.49785H36.0563V12.2143Z" fill="white"/>
<path d="M83.7328 3.57854H83.8894C83.9368 3.57854 83.9786 3.57283 84.0133 3.56068C84.0487 3.54854 84.0771 3.5314 84.1004 3.50997C84.1231 3.48854 84.1401 3.46354 84.1514 3.43426C84.1628 3.40497 84.1677 3.37211 84.1677 3.33711C84.1677 3.2664 84.1458 3.21211 84.1004 3.17426C84.0551 3.1364 83.9857 3.11783 83.8929 3.11783H83.7321V3.57854H83.7328ZM83.7328 3.76425V4.30782H83.4807V2.91711H83.8929C83.9843 2.91711 84.0636 2.9264 84.1288 2.9464C84.1947 2.96569 84.2485 2.99354 84.291 3.02854C84.3328 3.06354 84.3639 3.10568 84.3838 3.15497C84.4029 3.20354 84.4135 3.25783 84.4135 3.31711C84.4135 3.36426 84.4072 3.40783 84.3937 3.44997C84.3802 3.4914 84.3611 3.52926 84.3356 3.56354C84.3101 3.59783 84.2789 3.62711 84.2414 3.65283C84.2046 3.67854 84.1621 3.69925 84.1153 3.71425C84.1472 3.73283 84.1741 3.75925 84.1975 3.79425L84.5361 4.30782H84.3087C84.2655 4.30782 84.235 4.29068 84.2152 4.25568L83.9304 3.80997C83.9198 3.79283 83.9085 3.78068 83.895 3.77425C83.8823 3.76711 83.8639 3.76354 83.8384 3.76354H83.7328V3.76425Z" fill="white"/>
<path d="M84.5587 2.99428C84.3894 2.81928 84.1543 2.71142 83.8943 2.71142C83.6351 2.71142 83.3999 2.82 83.2299 2.99428C83.0599 3.16928 82.9551 3.41071 82.9551 3.67857C82.9551 3.945 83.0606 4.18714 83.2299 4.36214C83.3999 4.53714 83.6351 4.64571 83.8943 4.64571C84.1543 4.64571 84.3894 4.53714 84.5587 4.36214C84.7287 4.18714 84.8343 3.945 84.8343 3.67857C84.8343 3.41071 84.7287 3.16928 84.5587 2.99428ZM83.8943 2.54071C84.1996 2.54071 84.4758 2.66785 84.6763 2.87428C84.876 3.07928 85 3.36428 85 3.67785C85 3.99214 84.876 4.27642 84.6763 4.48214C84.4766 4.68785 84.1996 4.815 83.8943 4.815C83.589 4.815 83.3128 4.68785 83.113 4.48214C82.9126 4.27642 82.7893 3.99214 82.7893 3.67785C82.7893 3.36357 82.9126 3.07928 83.113 2.87357C83.3128 2.66785 83.589 2.54071 83.8943 2.54071Z" fill="white"/>
<path d="M47.3705 10.9864C47.6531 10.9864 47.8876 10.9343 48.0739 10.8293C48.2594 10.725 48.4047 10.5864 48.5116 10.4128C48.6179 10.24 48.6929 10.0493 48.7369 9.83927C48.7808 9.6307 48.8027 9.41641 48.8027 9.19784C48.8027 8.99856 48.785 8.7957 48.7503 8.5907C48.7149 8.38641 48.6512 8.20141 48.5577 8.03784C48.4649 7.87427 48.3388 7.73998 48.1801 7.6357C48.0207 7.5307 47.8132 7.47856 47.5568 7.47856C47.3266 7.47856 47.0836 7.51498 46.8272 7.58784C46.5701 7.6607 46.3406 7.7607 46.1373 7.88856C46.1019 8.17927 46.0799 8.42284 46.0707 8.61856C46.0622 8.81427 46.0579 9.01641 46.0579 9.2257C46.0579 9.47141 46.0778 9.7007 46.1174 9.91498C46.1571 10.1286 46.2258 10.3157 46.3229 10.4743C46.4199 10.6336 46.5531 10.7593 46.7209 10.85C46.8888 10.94 47.1056 10.9864 47.3705 10.9864ZM48.1532 5.8407C48.6483 5.8407 49.0641 5.92713 49.3999 6.09998C49.7356 6.27284 50.0104 6.50927 50.2222 6.80998C50.4347 7.10998 50.587 7.4607 50.6798 7.86141C50.7726 8.26141 50.8194 8.68498 50.8194 9.1307C50.8194 9.56713 50.7591 9.99284 50.6401 10.4071C50.5211 10.8207 50.3242 11.1914 50.0501 11.5193C49.776 11.8471 49.4197 12.1128 48.9819 12.3171C48.5442 12.5221 48.0023 12.6293 47.3563 12.6378C46.6317 12.6378 46.0502 12.5307 45.6124 12.3171C45.1754 12.1036 44.8368 11.8193 44.5981 11.4643C44.3594 11.1093 44.2021 10.7021 44.127 10.2428C44.0519 9.78284 44.0144 9.30284 44.0144 8.80284C44.0144 8.04784 44.0498 7.35141 44.1199 6.71427C44.1908 6.07784 44.3346 5.51141 44.5513 5.01498C44.7681 4.51927 45.0727 4.09856 45.4665 3.75284C45.8596 3.40713 46.3795 3.14784 47.0248 2.97427C47.3344 2.88356 47.7034 2.79498 48.1327 2.70856C48.5612 2.62213 49.0188 2.52856 49.5054 2.42856C49.5762 2.4107 49.6357 2.4057 49.6846 2.41427C49.7328 2.42356 49.7661 2.47784 49.7838 2.57784L50.0622 3.72427C50.0976 3.84284 50.0926 3.91713 50.0494 3.94927C50.0048 3.98141 49.9601 4.00641 49.9169 4.02427C49.6074 4.1057 49.3375 4.16998 49.108 4.21498C48.8778 4.2607 48.6476 4.3107 48.4181 4.3657C48.0023 4.45641 47.6623 4.55427 47.3967 4.65856C47.1318 4.76356 46.9171 4.88856 46.7535 5.03427C46.5892 5.17998 46.4681 5.35998 46.3887 5.57284C46.3087 5.78713 46.2563 6.04856 46.2294 6.35784C46.2379 6.35784 46.2471 6.36284 46.2563 6.37141L46.2825 6.39856C46.592 6.18927 46.9079 6.04427 47.2309 5.96213C47.5539 5.88213 47.8614 5.8407 48.1532 5.8407Z" fill="white"/>
<path d="M21.8946 2.27572C21.5079 1.24929 20.6741 0.454287 19.6371 0.144287V2.27572H21.8946Z" fill="white"/>
<path d="M8.39306 0.0100098C7.00543 0.0871527 5.83739 1.00287 5.35785 2.27573H8.39306V0.0100098Z" fill="white"/>
<path d="M5.12128 8.05572H8.39307V2.27573H5.35786C5.20699 2.6743 5.12128 3.10715 5.12128 3.56073V8.05572Z" fill="white"/>
<path d="M14.0194 2.27573H8.39307V8.05572H14.0194V2.27573Z" fill="white"/>
<path d="M14.0193 0V2.27572H19.6371V0.143572C19.3304 0.0514286 19.006 0 18.6703 0H14.0193Z" fill="white"/>
<path d="M14.0194 2.27572V0H8.58219C8.51844 0 8.45611 0.00642858 8.39307 0.00928572V2.275H14.0194V2.27572Z" fill="white"/>
<path d="M13.1608 18.1957C10.5308 18.1643 8.23507 16.6907 7.1662 14.3493C7.0047 13.9964 7.00045 13.6057 7.15487 13.2493C7.30857 12.8929 7.60182 12.6136 7.98078 12.4636C8.17274 12.3879 8.37603 12.3493 8.58428 12.3493C9.20408 12.3493 9.76012 12.6921 10.0024 13.2236C10.5938 14.52 11.7881 15.305 13.197 15.3214H13.2423C14.688 15.3214 15.985 14.505 16.6281 13.19C16.8774 12.6793 17.4285 12.3486 18.0306 12.3486C18.2523 12.3486 18.4669 12.3921 18.6702 12.4793C19.0442 12.6386 19.3297 12.9243 19.4742 13.2836C19.6187 13.6436 19.6038 14.0343 19.4324 14.3836C18.2821 16.7364 15.9113 18.1971 13.2444 18.1971L13.1608 18.1957Z" fill="#B22432"/>
</svg>
